<?xml version="1.0" encoding="UTF-8"?>
<svg width="254px" height="174px" viewBox="0 0 254 174" version="1.1" xmlns="http://www.w3.org/2000/svg" xmlns:xlink="http://www.w3.org/1999/xlink">
    <!-- Generator: Sketch 54.1 (76490) - https://sketchapp.com -->
    <title>banner-logo copy</title>
    <desc>Created with Sketch.</desc>
    <g id="Page-1" stroke="none" stroke-width="1" fill="none" fill-rule="evenodd">
        <g id="banner-logo-copy" fill="#FFFFFF" fill-rule="nonzero">
            <g id="logo-copy-18">
                <path d="M123.766324,173.262142 L123.767056,173.513447 L121.220842,171.471248 L3.26989774,88.4859071 L0,86.3997007 L0.82291309,85.813808 L0,85.2284886 L0.82291309,85.813808 L11.0097252,78.5610631 L10.968484,78.4989533 L22.5641441,70.1289884 L59.232841,43.6608355 L70.8285012,35.2908706 L70.9329627,35.4481915 L70.9329627,70.9845489 L50.8599598,85.4736188 L95.5885538,116.563781 L95.5885538,61.7590235 L95.5885538,47.0544941 L95.6167944,47.0544941 L95.6183911,46.8859127 L95.5885538,46.8855422 L95.6519825,29.4090588 L95.7845118,29.4928691 L95.7845118,29.389134 L123.956427,47.0226144 C123.956427,47.0226144 123.956427,89.1470398 123.956427,173.395891 L123.766324,173.262142 Z M129.59081,149.884583 L129.59081,135.190016 L129.59081,61.7171814 L129.59081,47.0226144 L129.59081,29.319208 L129.59081,14.694567 L129.614943,14.6986499 L129.614943,0 L157.262496,20.1646265 L157.654977,20.3634538 L157.655058,20.4509405 L157.739836,20.5127725 L157.655165,20.5656934 L157.663413,29.4417128 L157.74651,29.389134 L157.80986,46.8537769 L157.754503,46.8544647 L157.756094,47.0226144 L157.762725,47.0226144 L157.762725,47.7231489 L157.784877,50.0633846 L157.762725,50.0633675 L157.762725,61.7171814 L157.762725,116.225214 L202.624712,85.0249938 L183.117449,70.9364564 L183.117449,35.4241751 L183.221782,35.2669608 L194.803146,43.631255 L231.426636,70.0814755 L240.264382,76.464273 L240.320158,76.4117484 L253.547237,85.2284886 L129.59081,173.395891 L129.59081,167.518064 L129.59081,149.884583 Z M123.748163,38.1172397 L95.9027458,19.0586199 L123.842437,0 L123.748163,38.1172397 Z" id="Combined-Shape"></path>
            </g>
        </g>
    </g>
</svg>