<?xml version="1.0" encoding="UTF-8"?>
<svg id="Layer_1" data-name="Layer 1" xmlns="http://www.w3.org/2000/svg" viewBox="0 0 482.62 498.51">
  <defs>
    <style>
      .cls-1 {
        fill: #222b35;
        fill-rule: evenodd;
      }
    </style>
  </defs>
  <path class="cls-1" d="M371.5,244.27v146.04l-38.14,22.01V222.26l38.14,22.01ZM0,370.19H38.14V222.26h41.28c17.46,0,31.7,14.24,31.7,31.69v136.36l38.13,22.01V22.02L111.12,0h79.42c17.45,0,31.7,14.24,31.7,31.71V498.51C148.16,455.74,74.07,412.96,0,370.19Zm482.62,0h-38.14V222.26h-111.12V57.16c0-10.47,8.55-19.02,19.03-19.02h19.11v114.27c0,17.46,14.24,31.7,31.71,31.7h41.28V22.02L482.62,0h-190.54c-17.47,0-31.71,14.24-31.71,31.71V498.51c74.08-42.77,148.16-85.55,222.25-128.31Z"/>
</svg>