<?xml version="1.0" encoding="UTF-8"?>
<svg id="Layer_1" data-name="Layer 1" xmlns="http://www.w3.org/2000/svg" viewBox="0 0 338.32 437.97">
  <defs>
    <style>
      .cls-1 {
        fill: #13161e;
      }

      .cls-2 {
        fill: #0c1019;
      }

      .cls-3 {
        fill: #18203f;
      }
    </style>
  </defs>
  <path class="cls-1" d="M223.29,437.97l-44.44-7.48-30.95-18.67-59.4-35.83L.62,322.97l-.62-.36,114.95-109.6L243.98,89.97,338.32,0c-10.92,47.89-22.01,94.04-32.86,137.36-7.98,31.97-15.83,62.39-23.34,90.84-26.78,101.47-49.26,177.89-58.83,209.77Z"/>
  <path class="cls-2" d="M223.29,437.97l-44.44-7.48-30.95-18.67,86.79-187.72,48.17-104.17L338.32,0c-10.92,47.89-22.01,94.04-32.86,137.36-7.98,31.97-15.83,62.39-23.34,90.84-26.78,101.47-49.26,177.89-58.83,209.77Z"/>
  <path class="cls-3" d="M282.12,228.2c-15.96-1.34-31.77-2.71-47.42-4.1-41.09-3.62-81.09-7.34-119.74-11.09L243.98,89.97l38.88,29.97,22.59,17.42c-7.98,31.97-15.83,62.39-23.34,90.84Z"/>
  <path class="cls-2" d="M88.51,375.99L.62,322.97l177.96-36.44c-30.4,30.51-60.49,60.37-90.07,89.46Z"/>
</svg>