<?xml version="1.0" encoding="UTF-8"?>
<svg id="Layer_1" data-name="Layer 1" xmlns="http://www.w3.org/2000/svg" viewBox="0 0 481.55 481.55">
  <defs>
    <style>
      .cls-1 {
        fill: #fff;
      }
    </style>
  </defs>
  <polygon class="cls-1" points="66.76 0 90.18 0 0 90.18 0 66.76 66.76 0"/>
  <polygon class="cls-1" points="158.37 0 181.79 0 0 181.79 0 158.37 158.37 0"/>
  <polygon class="cls-1" points="249.98 0 273.4 0 0 273.41 0 249.98 249.98 0"/>
  <polygon class="cls-1" points="341.59 0 365.01 0 0 365.01 0 341.6 341.59 0"/>
  <polygon class="cls-1" points="433.2 0 456.63 0 0 456.63 0 433.21 433.2 0"/>
  <polygon class="cls-1" points="43.27 481.55 481.55 43.26 481.55 66.68 66.69 481.55 43.27 481.55"/>
  <polygon class="cls-1" points="134.88 481.55 481.55 134.87 481.55 158.3 158.3 481.55 134.88 481.55"/>
  <polygon class="cls-1" points="226.48 481.55 481.55 226.48 481.55 249.91 249.91 481.55 226.48 481.55"/>
  <polygon class="cls-1" points="318.09 481.55 481.55 318.09 481.55 341.52 341.52 481.55 318.09 481.55"/>
  <polygon class="cls-1" points="409.71 481.55 481.55 409.7 481.55 433.13 433.13 481.55 409.71 481.55"/>
</svg>